#!OML:ASF F:\VICON\USERDATA\INSTALL\rory3\rory3.ASF
:FULLY-SPECIFIED
:DEGREES
122
root -0.46511054399933677 18.003140727941755 40.81107400288481 2.675495037001447 2.00352262982414 -0.4610529143837001
lfemur -37.217709334648234 6.033408545464104 -23.046310610237224
ltibia 14.466619387005878
lfoot 16.84315747710977 -12.36879170049938
ltoes -5.131540984010597
rfemur -25.39844692862676 -7.679274807580379 20.969175517369855
rtibia 74.19562508190104
rfoot 27.538758928806345 -15.316227790916317
rtoes 13.524454571766789
lowerback 1.0 0.9158585026154441 3.709732309571042
upperback -1.1808634396162525 1.366352660389029 0.13741640075648442
thorax -7.103107655579229 0.02610367534443292 0.6843278018447345
lowerneck -18.37579881915573 -5.988660466256219 -1.2773268872241104
upperneck 14.94511340044176 -8.733510589529699 3.113724440435251
head 8.035614383307678 -3.416318039195432 0.40100337804765385
lclavicle -1.5028854776871578e-14 2.7025325453165775e-14
lhumerus -61.7801277277249 2.158867974378402 84.46198095980178
lradius 95.26428456268394
lwrist 36.622001146448284
lhand -19.2319422163943 -12.445087839834546
lfingers nan
lthumb 7.783589921350974 19.587792870248435
rclavicle -6.3244597223325216e-15 3.186363985534213e-14
rhumerus -36.63461166827775 20.53312054638497 -97.70225134178271
rradius 121.51878050333696
rwrist -16.677756744618648
rhand -17.345296581865707 1.0
rfingers nan
rthumb 8.954667602671647 12.37783151328553
123
root -0.4798242850181939 17.941462013048397 40.993672254960536 2.48456084844163 2.3050774838505608 0.07569441072791422
lfemur -36.595227067572814 6.3744320358652296 -24.111612201592965
ltibia 14.663157494953246
lfoot 17.702317708550016 -12.974204033610267
ltoes -3.7239072706288434
rfemur -26.379932391284008 -8.210489228535362 20.49198605017378
rtibia 78.6973477427889
rfoot 27.785533189057343 -16.789273848796476
rtoes 28.623573601999592
lowerback 1.0 0.7703670521439292 3.2468788398367425
upperback -0.9941731661387072 1.162651806875541 0.0016395433188890474
thorax -7.437204678290689 -0.036505236997681934 0.7486192233482911
lowerneck -19.109649520554242 -5.989105205335086 -1.3714203215908105
upperneck 15.105374893587602 -8.751930959331794 3.185889328334813
head 8.172299769654847 -3.391485457376664 0.42312576054698336
lclavicle 1.7662166855505833e-14 3.714868754980051e-14
lhumerus -61.10796527981396 1.8993926705248745 84.76875997518032
lradius 95.27428973296479
lwrist 35.999985552100675
lhand -21.83527871234376 -10.52285425801828
lfingers nan
lthumb 5.096203134629384 21.392414360153744
rclavicle 2.6287821366580108e-14 4.179566775320367e-14
rhumerus -37.625025564249405 19.656843985004656 -97.94149988834985
rradius 119.88938169195421
rwrist -15.346225722116614
rhand -17.672675738074616 1.0
rfingers nan
rthumb 8.669150925258263 12.180739625914601
124
root -0.5070731356845978 17.873569171472564 40.99621616418905 2.2991916697998906 2.5327242487396906 0.6296181432629471
lfemur -35.957591092796456 6.79986373231002 -25.13637668386668
ltibia 15.551238076646811
lfoot 17.980242323281836 -14.221474209615753
ltoes -0.8708734085188965
rfemur -27.23262020166534 -8.626934791438808 20.009399304374398
rtibia 83.4043637992282
rfoot 28.537149242149518 -17.773235648020123
rtoes 25.33445426741612
lowerback 1.0 0.6404144950741404 2.513747316847312
upperback -0.8472255974592877 0.9686393409120231 -0.06933782577271519
thorax -7.748004935854811 -0.10159547105490907 0.9660608486348687
lowerneck -19.206833126686067 -5.975743592598509 -1.490211358181018
upperneck 15.048897054264515 -8.70184251244039 3.2616521487422565
head 8.177377988269125 -3.340561037344458 0.46467110419239865
lclavicle 5.699002873939009e-14 1.6467270663506068e-14
lhumerus -60.46391028471245 1.6456494841551956 85.14819094294926
lradius 95.29171519865766
lwrist 35.343121231870704
lhand -21.5286548158049 -10.723091270840381
lfingers nan
lthumb 5.508372555008591 21.68622373107067
rclavicle 6.471462328936075e-14 2.1131518499558776e-14
rhumerus -38.80080172172738 18.695962223109476 -98.12561649915057
rradius 118.22089068005661
rwrist -15.365596972644502
rhand -17.611667277099162 1.0
rfingers nan
rthumb 8.796479048122183 12.228081431130622
125
root -0.5424214605012905 17.803625996274153 40.845123943952494 2.103647276550754 2.7072180153087957 0.7620712661093456
lfemur -35.41765571743825 7.181721088265287 -25.59103166194149
ltibia 17.30208743061886
lfoot 17.163601472741014 -16.318609117854056
ltoes 4.019297835061579
rfemur -28.143392541655512 -9.013685887635656 19.852765131816778
rtibia 88.17519009242336
rfoot 29.476299717254893 -18.35822549376133
rtoes 24.845775137380006
lowerback 1.0 0.49786720249679345 1.9119754289348996
upperback -0.7725300384793786 0.7905447419397406 0.04449959269484205
thorax -8.11007146840095 -0.17122209457199322 1.2351915287659756
lowerneck -18.587268632690336 -5.916908606077697 -1.3734726890769675
upperneck 14.882524848610071 -8.57756817143766 3.112242168319324
head 8.042745823145905 -3.2841451489554974 0.43708868111347776
lclavicle 7.44298048752635e-14 7.809522011899506e-15
lhumerus -59.876673477328374 1.27581789294248 85.84940662603417
lradius 97.00030443057533
lwrist 36.24082895243488
lhand -27.40972843842109 -2.945153574901738
lfingers nan
lthumb -0.24387566505680613 29.160286160304658
rclavicle 8.105747446101439e-14 1.263329348387588e-14
rhumerus -40.20721273940607 17.74089140871968 -98.47424643800558
rradius 116.56186138861267
rwrist -14.952522264463916
rhand -17.669318394355756 1.0
rfingers nan
rthumb 8.701130638594176 12.002900542132252
126
root -0.575926631144394 17.741153390114675 40.715022405743966 1.9193899019927172 2.878681532076003 0.8035529224809488
lfemur -34.950480625044364 7.502161747032829 -25.8097805167038
ltibia 20.04770532729715
lfoot 14.720732211804537 -18.908844945413527
ltoes 11.664297495258065
rfemur -28.919842939876016 -9.452369138727658 19.65146747998063
rtibia 92.94906202960902
rfoot 30.504786307823107 -18.34328968379063
rtoes 27.105881731407383
lowerback 1.0 0.3723846354436945 1.3596129159304693
upperback -0.5844564936289096 0.6386193577367899 0.20321036555562677
thorax -8.285143845325925 -0.23095274237049002 1.5267754824212831
lowerneck -18.41045479368397 -5.9188460905650615 -1.2626677849977945
upperneck 14.731673612903926 -8.553197715073745 2.98421449202608
head 7.956852524116456 -3.2682141008219903 0.4020166723511831
lclavicle 5.268776314605967e-14 3.422003258304871e-15
lhumerus -59.02872857200906 0.8389763599875817 86.41131008345582
lradius 97.42109798576892
lwrist 35.810079364857344
lhand -26.82814328545033 -2.7114271570114683
lfingers nan
lthumb 0.3620013154440578 29.466789747066183
rclavicle 5.90035172377756e-14 7.961166199492922e-15
rhumerus -41.30742083400185 16.66213667666134 -98.5738270191304
rradius 114.65934063548676
rwrist -13.810280427649214
rhand -17.692767499992605 1.0
rfingers nan
rthumb 8.691983794134739 11.801597781763764
127
root -0.5932225286856994 17.684992959613666 40.69600819784178 1.855019484402308 3.0314655312451992 0.8465312601876334
lfemur -34.641739037649906 7.361108300561333 -25.748760056295357
ltibia 23.537073194685753
lfoot 12.315726099084856 -19.455343261989015
ltoes 19.879958653585987
rfemur -29.56751213319266 -9.863311046032246 19.256937262650673
rtibia 97.57820276236545
rfoot 31.047962892087664 -18.371329321000623
rtoes 28.46600416252224
lowerback 1.0 0.2556369887682731 0.9748106198237898
upperback -0.44274524320334707 0.5056936959014235 0.2613469249238697
thorax -8.382629233792287 -0.28284757894891643 1.6915351429761634
lowerneck -18.068309696707672 -5.986821372629642 -1.3902481746986248
upperneck 14.41579292555752 -8.6380195396573 3.236286060362634
head 7.845456326469021 -3.2663724328365538 0.4788712687044412
lclavicle 2.531530860531585e-15 -3.024897363623564e-15
lhumerus -57.91421474890954 0.2968403582044896 87.03167943450141
lradius 97.49830673407214
lwrist 35.17132550067482
lhand -27.520177652588035 -4.413068397995403
lfingers nan
lthumb -0.2525638516555646 27.760125119028537
rclavicle 8.972757323520524e-15 1.1793183618576703e-15
rhumerus -42.263633273502144 15.480419975677087 -98.58410142796485
rradius 112.51763758674397
rwrist -12.30112788124611
rhand -17.922388996527918 1.0
rfingers nan
rthumb 8.507622080979504 12.417480906872289
128
root -0.5936122010881105 17.639831477146007 40.807191298345735 1.98830743283828 3.4638725143703346 1.1439752836427597
lfemur -34.56647499603054 6.751622214485983 -26.00385457797424
ltibia 27.515282650218985
lfoot 9.33733633060917 -18.224397568036323
ltoes 23.41423473113503
rfemur -30.11602729027265 -10.541268751616933 18.40794621495001
rtibia 102.15836798804989
rfoot 30.57246660984584 -18.142825107187264
rtoes 23.016734157119473
lowerback 1.0 0.01375863257914911 0.4651896601986134
upperback -0.41573581849045915 0.18009060164117385 0.23333227518026667
thorax -8.571654095610945 -0.41459766585267543 1.9307805102783102
lowerneck -18.807264960013654 -5.974901456204672 -1.5720473344580077
upperneck 14.587284666137684 -8.623429161995487 3.470758408473671
head 7.999678037659463 -3.2163632261770285 0.5515731634189276
lclavicle 4.8018535168408814e-14 -5.226189471934067e-15
lhumerus -56.754919641198484 -0.09469645811016036 87.61365857045851
lradius 97.90200353584729
lwrist 34.605898473003755
lhand -27.87167999941026 -5.268101133652932
lfingers nan
lthumb -0.5641568745471655 26.824069295281628
rclavicle 5.48604977352413e-14 -8.801501117429494e-16
rhumerus -42.920077298136206 14.412885484626972 -98.53246148779539
rradius 110.20896420679324
rwrist -11.164400360679453
rhand -18.075221578416176 1.0
rfingers nan
rthumb 8.367916572024487 13.042472066418913
